<?xml version="1.0" encoding="UTF-8"?>
<svg id="Layer_1" data-name="Layer 1" xmlns="http://www.w3.org/2000/svg" viewBox="0 0 1080 1080">
  <defs>
    <style>
      .cls-1 {
        stroke-width: 0px;
        fill: #fcf7f0;
      }
    </style>
  </defs>
  <g>
    <path class="cls-1" d="m539.96,989.14c-189.37,0-343.43-154.06-343.43-343.43s154.06-343.43,343.43-343.43,343.43,154.06,343.43,343.43h-111.41c0-127.94-104.08-232.02-232.02-232.02s-232.02,104.08-232.02,232.02,104.08,232.02,232.02,232.02v111.41Z"/>
    <path class="cls-1" d="m883.47,989.14c-189.37,0-343.43-154.06-343.43-343.43h111.41c0,127.94,104.08,232.02,232.02,232.02v111.41Z"/>
  </g>
  <g>
    <path class="cls-1" d="m718.12,175.44c-78.02,0-151.57-25.51-212.69-73.77l69.04-87.44c41.26,32.58,90.93,49.8,143.64,49.8v111.41Z"/>
    <path class="cls-1" d="m539.96,177.77c-78.02,0-151.57-25.51-212.69-73.77l69.04-87.44c41.26,32.58,90.93,49.8,143.65,49.8v111.41Z"/>
  </g>
</svg>
